<?xml version="1.0" encoding="iso-8859-1"?>
<!-- Generator: Adobe Illustrator 19.0.0, SVG Export Plug-In . SVG Version: 6.00 Build 0)  -->
<svg version="1.1" id="Layer_1" xmlns="http://www.w3.org/2000/svg" xmlns:xlink="http://www.w3.org/1999/xlink" x="0px" y="0px"
	 viewBox="0 0 512 512" style="enable-background:new 0 0 512 512;" xml:space="preserve">
<g>
	<g>
		<circle style="fill:#FFAD9E;" cx="256" cy="256" r="256"/>
	</g>
	<path style="fill:#FF7F4F;" d="M510.623,282.657l-66.527-65.152c17.861,31.878,1.969,72.07-32.944,81.592
		c-43.098,13.791-89.643,13.791-132.741,13.791c-18.963-1.724-48.269-20.687-34.478-43.098
		c15.515-24.135,32.754-43.098,18.963-67.232c-10.343-17.239-39.65-8.62-56.889-6.896c-9.428,0-18.856-1.788-28.446-3.572
		c-12.779,4.986-26.098,7.744-45.173,2.767c-15.269,10.199-35.511,17.249-51.071,26.372l-17.032,13.748
		c-6.087,7.642-8.532,17.067-4.808,29.639c3.448,15.515,18.963,34.478,32.754,39.65c15.651,7.115,31.32,14.214,47.942,20.359
		l-3.694-3.694l3.694,3.694c3.515,1.3,7.059,2.572,10.671,3.775c-3.612-1.203-7.156-2.476-10.671-3.775l179.4,179.4
		C421.86,477.887,499.5,390.153,510.623,282.657z"/>
	<path style="fill:#E03A00;" d="M388.537,183.618c-39.255-15.11-90.041-24.495-132.542-24.495c-4.761,0-8.62,3.858-8.62,8.62
		s3.858,8.62,8.62,8.62c82.777,0,188.723,36.224,189.774,76.936c0.157,6.106-2.767,12.286-8.695,18.368
		c-21.211,21.766-73.888,36.388-131.086,36.388c-10.94,0-21.423-0.524-31.406-1.472c52.19-3.943,89.593-24.367,89.593-50.585
		c0-5.149-1.783-9.9-4.184-14.691c-7.189-14.341-21.897-28.02-45.656-38.203c-29.077-12.462-67.55-19.325-108.329-19.325
		c-62.505,0-118.806,16.327-143.431,41.596c-9.163,9.404-13.86,20.07-13.583,30.846c0.874,33.871,40.977,56.348,74.464,69.236
		c39.257,15.112,90.043,24.497,132.543,24.497c4.761,0,8.62-3.858,8.62-8.62s-3.858-8.62-8.62-8.62
		c-82.777,0-188.723-36.224-189.774-76.936c-0.157-6.106,2.769-12.286,8.697-18.368c21.211-21.766,73.888-36.388,131.084-36.388
		c17.694,0,34.226,1.345,49.295,3.701C193.982,204.89,147.825,226.875,147.825,256c0,8.795,4.677,16.484,11.797,24.019
		c8.807,9.325,21.066,18.675,38.04,25.95c29.077,12.462,67.549,19.325,108.328,19.325c62.507,0,118.808-16.329,143.432-41.596
		c9.163-9.404,13.86-20.071,13.581-30.846C462.127,218.981,422.026,196.506,388.537,183.618z"/>
	<path style="fill:#BF3104;" d="M388.537,183.618c-39.255-15.11-90.041-24.495-132.542-24.495c-4.761,0-8.62,3.858-8.62,8.62
		s3.858,8.62,8.62,8.62c82.777,0,188.723,36.224,189.774,76.936c0.157,6.106-2.767,12.286-8.695,18.368
		c-21.211,21.766-73.888,36.388-131.086,36.388c-10.94,0-21.423-0.524-31.406-1.472c52.19-3.943,89.593-24.367,89.593-50.585
		c0-5.149-1.783-9.9-4.184-14.691c-7.189-14.341-21.897-28.02-45.656-38.203c-17.065-7.313-37.379-12.681-59.483-15.882v17.432
		c0.148,0.022,0.302,0.043,0.45,0.066c-0.152,0-0.298,0.005-0.45,0.007v116.798c16.229,2.476,33.464,3.768,51.136,3.768
		c62.507,0,118.808-16.329,143.432-41.596c9.163-9.404,13.86-20.071,13.581-30.846C462.127,218.981,422.026,196.506,388.537,183.618
		z"/>
	<g>
		<path style="fill:#E03A00;" d="M220.66,176.7h-22.411c-4.761,0-8.62-3.858-8.62-8.62s3.858-8.62,8.62-8.62h22.411
			c4.761,0,8.62,3.858,8.62,8.62S225.421,176.7,220.66,176.7z"/>
	</g>
	<g>
		<path style="fill:#BF3104;" d="M306.855,349.953h-22.411c-4.761,0-8.62-3.858-8.62-8.62s3.858-8.62,8.62-8.62h22.411
			c4.761,0,8.62,3.858,8.62,8.62S311.617,349.953,306.855,349.953z"/>
	</g>
	<g>
		<path style="fill:#E03A00;" d="M142.217,150.843c-3.825,0-7.318-2.563-8.333-6.435c-1.207-4.605,1.548-9.316,6.153-10.523
			c96.375-25.255,198.994-1.083,203.316-0.041c4.627,1.115,7.473,5.77,6.358,10.397c-1.114,4.627-5.773,7.48-10.395,6.363
			c-1.015-0.247-102.822-24.171-194.91-0.041C143.675,150.752,142.939,150.843,142.217,150.843z"/>
	</g>
	<g>
		<path style="fill:#E03A00;" d="M284.444,388.741c-136.763,0-200.952-38.424-203.619-40.06c-4.058-2.489-5.329-7.797-2.838-11.855
			c2.484-4.053,7.783-5.33,11.842-2.844c0.836,0.502,63.519,37.521,194.615,37.521c4.761,0,8.62,3.858,8.62,8.62
			C293.064,384.883,289.206,388.741,284.444,388.741z"/>
	</g>
	<g>
		<path style="fill:#BF3104;" d="M398.215,354.264c-3.867,0-7.384-2.622-8.359-6.544c-1.148-4.62,1.667-9.295,6.287-10.443
			c42.174-10.476,61.14-30.118,61.326-30.315c3.272-3.455,8.728-3.606,12.185-0.333c3.456,3.272,3.606,8.728,0.333,12.185
			c-0.903,0.955-22.673,23.516-69.691,35.194C399.603,354.182,398.905,354.264,398.215,354.264z"/>
	</g>
	<g>
		<path style="fill:#BF3104;" d="M461.602,203.685c-2.619,0-5.203-1.186-6.896-3.437c-0.291-0.381-17.294-22.18-57.387-37.295
			c-4.455-1.681-6.704-6.651-5.025-11.105c1.679-4.453,6.647-6.706,11.105-5.025c45.332,17.089,64.319,42.037,65.105,43.089
			c2.846,3.817,2.06,9.218-1.755,12.064C465.203,203.128,463.394,203.685,461.602,203.685z"/>
	</g>
</g>
<g>
</g>
<g>
</g>
<g>
</g>
<g>
</g>
<g>
</g>
<g>
</g>
<g>
</g>
<g>
</g>
<g>
</g>
<g>
</g>
<g>
</g>
<g>
</g>
<g>
</g>
<g>
</g>
<g>
</g>
</svg>
