<?xml version="1.0" encoding="iso-8859-1"?>
<!-- Generator: Adobe Illustrator 19.0.0, SVG Export Plug-In . SVG Version: 6.00 Build 0)  -->
<svg version="1.1" id="Layer_1" xmlns="http://www.w3.org/2000/svg" xmlns:xlink="http://www.w3.org/1999/xlink" x="0px" y="0px"
	 viewBox="0 0 512 512" style="enable-background:new 0 0 512 512;" xml:space="preserve">
<g>
	<g>
		<circle style="fill:#386895;" cx="256" cy="256" r="256"/>
	</g>
	<path style="fill:#273B7A;" d="M378.085,136.73l-242.51,240.166l134.703,134.703c130.026-7.149,234.189-111.321,241.323-241.352
		L378.085,136.73z"/>
	<g>
		<circle style="fill:#FF7F4F;" cx="256" cy="256" r="170.667"/>
	</g>
	<g>
		<path style="fill:#F76F46;" d="M256,85.333c94.256,0,170.667,76.41,170.667,170.667S350.256,426.667,256,426.667V85.333z"/>
	</g>
	<g>
		
			<ellipse transform="matrix(0.4059 -0.9139 0.9139 0.4059 38.3464 400.3324)" style="fill:#E03A00;" cx="327.096" cy="170.671" rx="28.444" ry="42.666"/>
	</g>
	<g>
		
			<ellipse transform="matrix(-0.0131 -0.9999 0.9999 -0.0131 54.0418 590.5748)" style="fill:#E03A00;" cx="318.465" cy="268.618" rx="28.444" ry="27.432"/>
	</g>
	<g>
		
			<ellipse transform="matrix(-0.0131 -0.9999 0.9999 -0.0131 -110.0982 517.0898)" style="fill:#FF5419;" cx="200.131" cy="312.878" rx="16.087" ry="15.515"/>
	</g>
	<g>
		
			<ellipse transform="matrix(-0.0131 -0.9999 0.9999 -0.0131 -56.0976 659.4435)" style="fill:#E03A00;" cx="297.381" cy="357.405" rx="16.087" ry="15.515"/>
	</g>
	<g>
		
			<ellipse transform="matrix(-0.0131 -0.9999 0.9999 -0.0131 34.443 400.022)" style="fill:#FF5419;" cx="214.629" cy="183.014" rx="16.087" ry="15.515"/>
	</g>
	<g>
		
			<ellipse transform="matrix(-0.7923 -0.6102 0.6102 -0.7923 142.5471 499.5086)" style="fill:#FF5419;" cx="156.302" cy="225.489" rx="27.191" ry="40.788"/>
	</g>
	<g>
		
			<ellipse transform="matrix(-0.4809 -0.8768 0.8768 -0.4809 155.5824 328.3062)" style="fill:#FF5419;" cx="174.98" cy="118.096" rx="9.063" ry="40.787"/>
	</g>
	<g>
		
			<ellipse transform="matrix(-0.9996 -0.0288 0.0288 -0.9996 803.8513 538.1111)" style="fill:#E03A00;" cx="405.801" cy="263.267" rx="9.063" ry="40.787"/>
	</g>
</g>
<g>
</g>
<g>
</g>
<g>
</g>
<g>
</g>
<g>
</g>
<g>
</g>
<g>
</g>
<g>
</g>
<g>
</g>
<g>
</g>
<g>
</g>
<g>
</g>
<g>
</g>
<g>
</g>
<g>
</g>
</svg>
