<?xml version="1.0" encoding="iso-8859-1"?>
<!-- Generator: Adobe Illustrator 19.0.0, SVG Export Plug-In . SVG Version: 6.00 Build 0)  -->
<svg version="1.1" id="Layer_1" xmlns="http://www.w3.org/2000/svg" xmlns:xlink="http://www.w3.org/1999/xlink" x="0px" y="0px"
	 viewBox="0 0 512 512" style="enable-background:new 0 0 512 512;" xml:space="preserve">
<g>
	<g>
		<circle style="fill:#FEE187;" cx="256" cy="256" r="256"/>
	</g>
	<path style="fill:#FFC61B;" d="M510.117,224.913L406.031,120.829c-8.93,7.354-19.528,12.738-31.082,7.602
		c-3.448-1.724-5.172-6.896-6.896-8.62c-18.963-10.343-41.374-15.515-60.337-22.411c-41.374-17.239-94.815-24.135-132.741,6.896
		c-53.441,39.65-105.158,105.158-82.747,177.562c8.62,24.135,3.448,56.889,24.135,79.3c3.87,5.161,8.706,12.254,10.171,19.832
		l130.989,130.991C398.207,511.159,512,396.876,512,256C512,245.476,511.35,235.105,510.117,224.913z"/>
	<g>
		<circle style="fill:#366695;" cx="256" cy="256" r="85.333"/>
	</g>
	<g>
		<path style="fill:#D48B07;" d="M256,436.148c-99.333,0-180.148-80.815-180.148-180.148S156.667,75.852,256,75.852
			S436.148,156.667,436.148,256S355.333,436.148,256,436.148z M256,94.815c-88.878,0-161.185,72.308-161.185,161.185
			S167.122,417.185,256,417.185S417.185,344.878,417.185,256S344.878,94.815,256,94.815z"/>
	</g>
	<g>
		<path style="fill:#273B7A;" d="M341.333,256c0-47.032-38.05-85.17-85.045-85.326v170.653
			C303.283,341.17,341.333,303.032,341.333,256z"/>
	</g>
	<g>
		<path style="fill:#FF5419;" d="M436.148,256c0-99.237-80.66-179.988-179.86-180.145v18.963
			C345.033,94.975,417.185,167.219,417.185,256s-72.152,161.025-160.897,161.182v18.963
			C355.488,435.988,436.148,355.237,436.148,256z"/>
	</g>
	<g>
		<circle style="fill:#940030;" cx="383.569" cy="142.222" r="31.03"/>
	</g>
</g>
<g>
</g>
<g>
</g>
<g>
</g>
<g>
</g>
<g>
</g>
<g>
</g>
<g>
</g>
<g>
</g>
<g>
</g>
<g>
</g>
<g>
</g>
<g>
</g>
<g>
</g>
<g>
</g>
<g>
</g>
</svg>
